<?xml version="1.0" encoding="UTF-8"?> <svg xmlns="http://www.w3.org/2000/svg" width="51" height="40" viewBox="0 0 51 40" fill="none"><path d="M24.6645 39.0184V2.54792V0.943999H23.6272C17.2362 0.943999 10.8503 0.943999 4.46944 0.943999C3.22692 1.06056 1.9827 0.739409 0.955926 0.0371094C0.90292 2.2856 0.266857 4.27176 0.0245457 6.32538C0.0245457 6.6027 -0.119328 6.92498 0.289572 7.02991C0.698472 7.13484 0.759048 6.77508 0.819625 6.52025C1.06194 5.47845 1.31182 4.43665 1.48598 3.38736C1.5063 3.1312 1.57922 2.88184 1.70026 2.65454C1.8213 2.42724 1.98793 2.22677 2.18994 2.0654C2.39196 1.90404 2.62511 1.78516 2.87514 1.71606C3.12517 1.64696 3.38681 1.62908 3.64407 1.66351C7.92994 1.66351 12.2234 1.66351 16.5168 1.66351C18.1373 1.66351 18.6295 2.17317 18.6295 3.73213C18.6295 14.8546 18.6295 25.9747 18.6295 37.0922C18.6295 38.7186 18.1221 39.2058 16.4638 39.2582C15.3053 39.2582 14.1392 39.3032 12.973 39.3182V39.9253C16.638 39.9253 20.2954 39.9253 23.9603 40.0002C24.7781 40.0002 24.6797 39.5505 24.6797 39.0559" fill="#15181A"></path><path d="M46.586 6.28827C46.3437 4.23465 45.7076 2.24849 45.6546 0C44.6279 0.7023 43.3836 1.02345 42.1411 0.90689C37.1889 0.90689 32.2392 0.90689 27.292 0.90689V39.8807L33.6299 39.8432V39.2361C32.4638 39.2361 31.2977 39.2361 30.1391 39.1762C28.4808 39.1237 27.9735 38.6365 27.9735 37.0101C27.9735 25.8876 27.9735 14.7676 27.9735 3.65005C27.9735 2.09109 28.4657 1.58893 30.0861 1.58144C34.372 1.58144 38.6655 1.58144 42.9589 1.58144C43.2162 1.547 43.4778 1.56488 43.7278 1.63398C43.9779 1.70308 44.211 1.82196 44.413 1.98332C44.6151 2.14469 44.7817 2.34516 44.9027 2.57246C45.0238 2.79976 45.0967 3.04912 45.117 3.30528C45.2912 4.35457 45.541 5.39637 45.7834 6.43817C45.8364 6.693 45.8666 7.06026 46.3134 6.94783C46.7602 6.83541 46.6163 6.52062 46.5784 6.2433" fill="#15181A"></path><path d="M36.9697 38.3138C36.9697 30.6764 36.9697 19.8012 36.9697 12.1638V11.1145H36.3337C32.4264 11.1145 28.5116 11.1145 24.5968 11.1145C23.8343 11.1839 23.0718 10.982 22.4462 10.5449C22.3225 11.8704 22.1304 13.1887 21.8707 14.4948C21.8707 14.6746 21.7875 14.877 22.0373 14.937C22.2872 14.9969 22.3251 14.7796 22.3629 14.6222C22.5144 13.9626 22.6658 13.3106 22.7718 12.651C22.7821 12.4925 22.8248 12.3376 22.8975 12.196C22.9701 12.0544 23.0712 11.9288 23.1945 11.8271C23.3178 11.7254 23.4607 11.6497 23.6146 11.6045C23.7685 11.5593 23.93 11.5456 24.0894 11.5642H31.9797C32.9716 11.5642 33.2669 11.8865 33.2669 12.8684C33.2669 19.8612 33.2669 30.1068 33.2669 37.0696C33.2669 38.0889 32.9565 38.3962 31.9418 38.4262C31.23 38.4262 30.5106 38.4262 29.7989 38.4711V38.8534C32.0705 38.8534 34.2892 38.8534 36.5306 38.8984C37.0303 38.8984 36.9697 38.6136 36.9697 38.2988" fill="#C0A699"></path><path d="M50.4025 14.4723C50.2586 13.1832 49.8649 11.9315 49.8346 10.5225C49.2067 10.9606 48.4415 11.1626 47.6765 11.0921H38.5898V38.8234H42.4744C42.4744 38.696 42.4744 38.5686 42.4744 38.4412C41.755 38.4412 41.0432 38.4412 40.3315 38.3962C39.3168 38.3962 39.0063 38.0589 39.0063 37.0396C39.0063 30.0468 39.0063 19.8012 39.0063 12.8384C39.0063 11.8566 39.3092 11.5418 40.3012 11.5343H48.1838C48.3436 11.5156 48.5056 11.5293 48.6599 11.5744C48.8142 11.6195 48.9576 11.6952 49.0815 11.7968C49.2054 11.8984 49.3072 12.0239 49.3807 12.1655C49.4541 12.3072 49.4978 12.4622 49.509 12.6211C49.615 13.2806 49.7664 13.9327 49.9103 14.5922C49.9482 14.7496 49.9709 14.982 50.2435 14.907C50.5161 14.8321 50.4252 14.6447 50.4025 14.4648" fill="#C0A699"></path></svg> 